<svg width="80" height="80" viewBox="0 0 80 80" fill="none" xmlns="http://www.w3.org/2000/svg">
<g id="ArrowLeftCircle" clip-path="url(#clip0_17_208)">
<path id="Vector" fill-rule="evenodd" clip-rule="evenodd" d="M5 40C5 49.2826 8.68749 58.185 15.2513 64.7487C21.815 71.3125 30.7174 75 40 75C49.2826 75 58.185 71.3125 64.7487 64.7487C71.3125 58.185 75 49.2826 75 40C75 30.7174 71.3125 21.815 64.7487 15.2513C58.185 8.68749 49.2826 5 40 5C30.7174 5 21.815 8.68749 15.2513 15.2513C8.68749 21.815 5 30.7174 5 40ZM80 40C80 50.6087 75.7857 60.7828 68.2843 68.2843C60.7828 75.7857 50.6087 80 40 80C29.3913 80 19.2172 75.7857 11.7157 68.2843C4.21427 60.7828 0 50.6087 0 40C0 29.3913 4.21427 19.2172 11.7157 11.7157C19.2172 4.21427 29.3913 0 40 0C50.6087 0 60.7828 4.21427 68.2843 11.7157C75.7857 19.2172 80 29.3913 80 40ZM57.5 37.5C58.163 37.5 58.7989 37.7634 59.2678 38.2322C59.7366 38.7011 60 39.337 60 40C60 40.663 59.7366 41.2989 59.2678 41.7678C58.7989 42.2366 58.163 42.5 57.5 42.5H28.535L39.27 53.23C39.5024 53.4624 39.6868 53.7384 39.8126 54.0421C39.9384 54.3458 40.0032 54.6713 40.0032 55C40.0032 55.3287 39.9384 55.6542 39.8126 55.9579C39.6868 56.2616 39.5024 56.5376 39.27 56.77C39.0376 57.0024 38.7616 57.1868 38.4579 57.3126C38.1542 57.4384 37.8287 57.5032 37.5 57.5032C37.1713 57.5032 36.8458 57.4384 36.5421 57.3126C36.2384 57.1868 35.9624 57.0024 35.73 56.77L20.73 41.77C20.4972 41.5378 20.3125 41.2619 20.1864 40.9582C20.0604 40.6544 19.9955 40.3288 19.9955 40C19.9955 39.6712 20.0604 39.3456 20.1864 39.0418C20.3125 38.7381 20.4972 38.4622 20.73 38.23L35.73 23.23C36.1994 22.7606 36.8361 22.4968 37.5 22.4968C38.1639 22.4968 38.8006 22.7606 39.27 23.23C39.7394 23.6994 40.0032 24.3361 40.0032 25C40.0032 25.6639 39.7394 26.3006 39.27 26.77L28.535 37.5H57.5Z" fill="black" fill-opacity="0.8"/>
</g>
<defs>
<clipPath id="clip0_17_208">
<rect width="80" height="80" fill="white"/>
</clipPath>
</defs>
</svg>
